<?xml version="1.0" encoding="UTF-8"?><svg id="a" xmlns="http://www.w3.org/2000/svg" xmlns:xlink="http://www.w3.org/1999/xlink" viewBox="0 0 632 594"><defs><style>.f{fill:#fff;}.f,.g{fill-rule:evenodd;}.h{filter:url(#b);}.i{mask:url(#d);}</style><filter id="b" filterUnits="userSpaceOnUse"><feOffset dx="0" dy="10"/><feGaussianBlur result="c" stdDeviation="0"/><feFlood flood-color="#000" flood-opacity="1"/><feComposite in2="c" operator="in"/><feComposite in="SourceGraphic"/></filter><mask id="d" x="-3" y="-3" width="638" height="590" maskUnits="userSpaceOnUse"><g id="e"><path class="f" d="M592,0C614.09,0,632,17.91,632,40v504c0,22.09-17.91,40-40,40H40c-22.09,0-40-17.91-40-40V40C0,17.91,17.91,0,40,0H592Zm-12,460c-17.67,0-32,14.33-32,32s14.33,32,32,32,32-14.33,32-32-14.33-32-32-32Zm-88,0c-17.67,0-32,14.33-32,32s14.33,32,32,32,32-14.33,32-32-14.33-32-32-32Zm-88,0c-17.67,0-32,14.33-32,32s14.33,32,32,32,32-14.33,32-32-14.33-32-32-32Zm-176,0c-17.67,0-32,14.33-32,32s14.33,32,32,32,32-14.33,32-32-14.33-32-32-32Zm88,0c-17.67,0-32,14.33-32,32s14.33,32,32,32,32-14.33,32-32-14.33-32-32-32Zm-176,0c-17.67,0-32,14.33-32,32s14.33,32,32,32,32-14.33,32-32-14.04-31.71-31.47-32h-.53Zm-88,0c-17.67,0-32,14.33-32,32s14.33,32,32,32,32-14.33,32-32-14.33-32-32-32Zm528-88c-17.67,0-32,14.33-32,32s14.33,32,32,32,32-14.33,32-32-14.33-32-32-32Zm-88,0c-17.67,0-32,14.33-32,32s14.33,32,32,32,32-14.33,32-32-14.33-32-32-32Zm-88,0c-17.67,0-32,14.33-32,32s14.33,32,32,32,32-14.33,32-32-14.33-32-32-32Zm-88,0c-17.67,0-32,14.33-32,32s14.33,32,32,32,32-14.33,32-32-14.33-32-32-32Zm-88,0c-17.67,0-32,14.33-32,32s14.33,32,32,32,32-14.33,32-32-14.33-32-32-32Zm-88,0c-17.67,0-32,14.33-32,32s14.33,32,32,32,32-14.33,32-32-14.33-32-32-32Zm-88,0c-17.67,0-32,14.33-32,32s14.33,32,32,32,32-14.33,32-32-14.33-32-32-32Zm0-88c-17.67,0-32,14.33-32,32s14.33,32,32,32,32-14.33,32-32-14.33-32-32-32Zm88,0c-17.67,0-32,14.33-32,32s14.33,32,32,32,32-14.33,32-32-14.33-32-32-32Zm88,0c-17.67,0-32,14.33-32,32s14.33,32,32,32,32-14.33,32-32-14.33-32-32-32Zm88,0c-17.67,0-32,14.33-32,32s14.33,32,32,32,32-14.33,32-32-14.33-32-32-32Zm88,0c-17.67,0-32,14.33-32,32s14.33,32,32,32,32-14.33,32-32-14.33-32-32-32Zm88,0c-17.67,0-32,14.33-32,32s14.33,32,32,32,32-14.33,32-32-14.33-32-32-32Zm88,0c-17.67,0-32,14.33-32,32s14.33,32,32,32,32-14.33,32-32-14.33-32-32-32ZM140,196c-17.67,0-32,14.33-32,32s14.33,32,32,32,32-14.33,32-32-14.33-32-32-32Zm88,0c-17.67,0-32,14.33-32,32s14.33,32,32,32,32-14.33,32-32-14.33-32-32-32Zm88,0c-17.67,0-32,14.33-32,32s14.33,32,32,32,32-14.33,32-32-14.33-32-32-32Zm88,0c-17.67,0-32,14.33-32,32s14.33,32,32,32,32-14.33,32-32-14.33-32-32-32Zm88,0c-17.67,0-32,14.33-32,32s14.33,32,32,32,32-14.33,32-32-14.33-32-32-32Zm88,0c-17.67,0-32,14.33-32,32s14.33,32,32,32,32-14.33,32-32-14.33-32-32-32Zm-528,0c-17.67,0-32,14.33-32,32s14.33,32,32,32,32-14.33,32-32-14.33-32-32-32ZM580,108c-17.67,0-32,14.33-32,32s14.33,32,32,32,32-14.33,32-32-14.33-32-32-32Zm-88,0c-17.67,0-32,14.33-32,32s14.33,32,32,32,32-14.33,32-32-14.33-32-32-32Zm-88,0c-17.67,0-32,14.33-32,32s14.33,32,32,32,32-14.33,32-32-14.33-32-32-32Zm-88,0c-17.67,0-32,14.33-32,32s14.33,32,32,32,32-14.33,32-32-14.33-32-32-32Zm-88,0c-17.67,0-32,14.33-32,32s14.33,32,32,32,32-14.33,32-32-14.33-32-32-32Zm-88,0c-17.67,0-32,14.33-32,32s14.33,32,32,32,32-14.33,32-32-14.33-32-32-32Zm-88,0c-17.67,0-32,14.33-32,32s14.33,32,32,32,32-14.33,32-32-14.33-32-32-32ZM580,20c-17.67,0-32,14.33-32,32s14.33,32,32,32,32-14.33,32-32-14.33-32-32-32Zm-88,0c-17.67,0-32,14.33-32,32s14.33,32,32,32,32-14.33,32-32-14.33-32-32-32Zm-88,0c-17.67,0-32,14.33-32,32s14.33,32,32,32,32-14.33,32-32-14.33-32-32-32Zm-88,0c-17.67,0-32,14.33-32,32s14.33,32,32,32,32-14.33,32-32-14.33-32-32-32Zm-88,0c-17.67,0-32,14.33-32,32s14.33,32,32,32,32-14.33,32-32-14.33-32-32-32Zm-88,0c-17.67,0-32,14.33-32,32s14.33,32,32,32,32-14.33,32-32-14.33-32-32-32Zm-88,0c-17.67,0-32,14.33-32,32s14.33,32,32,32,32-14.33,32-32-14.33-32-32-32Z"/></g></mask></defs><g class="h"><path class="g" d="M592,0C614.09,0,632,17.91,632,40v504c0,22.09-17.91,40-40,40H40c-22.09,0-40-17.91-40-40V40C0,17.91,17.91,0,40,0H592Zm-12,460c-17.67,0-32,14.33-32,32s14.33,32,32,32,32-14.33,32-32-14.33-32-32-32Zm-88,0c-17.67,0-32,14.33-32,32s14.33,32,32,32,32-14.33,32-32-14.33-32-32-32Zm-88,0c-17.67,0-32,14.33-32,32s14.33,32,32,32,32-14.33,32-32-14.33-32-32-32Zm-176,0c-17.67,0-32,14.33-32,32s14.33,32,32,32,32-14.33,32-32-14.33-32-32-32Zm88,0c-17.67,0-32,14.33-32,32s14.33,32,32,32,32-14.33,32-32-14.33-32-32-32Zm-176,0c-17.67,0-32,14.33-32,32s14.33,32,32,32,32-14.33,32-32-14.04-31.71-31.47-32h-.53Zm-88,0c-17.67,0-32,14.33-32,32s14.33,32,32,32,32-14.33,32-32-14.33-32-32-32Zm528-88c-17.67,0-32,14.33-32,32s14.33,32,32,32,32-14.33,32-32-14.33-32-32-32Zm-88,0c-17.67,0-32,14.33-32,32s14.33,32,32,32,32-14.33,32-32-14.33-32-32-32Zm-88,0c-17.67,0-32,14.33-32,32s14.33,32,32,32,32-14.33,32-32-14.33-32-32-32Zm-88,0c-17.67,0-32,14.33-32,32s14.33,32,32,32,32-14.33,32-32-14.33-32-32-32Zm-88,0c-17.67,0-32,14.33-32,32s14.33,32,32,32,32-14.33,32-32-14.33-32-32-32Zm-88,0c-17.67,0-32,14.33-32,32s14.33,32,32,32,32-14.33,32-32-14.33-32-32-32Zm-88,0c-17.67,0-32,14.33-32,32s14.33,32,32,32,32-14.33,32-32-14.33-32-32-32Zm0-88c-17.67,0-32,14.33-32,32s14.33,32,32,32,32-14.33,32-32-14.33-32-32-32Zm88,0c-17.67,0-32,14.33-32,32s14.33,32,32,32,32-14.33,32-32-14.33-32-32-32Zm88,0c-17.67,0-32,14.33-32,32s14.33,32,32,32,32-14.33,32-32-14.33-32-32-32Zm88,0c-17.67,0-32,14.33-32,32s14.33,32,32,32,32-14.33,32-32-14.33-32-32-32Zm88,0c-17.67,0-32,14.33-32,32s14.33,32,32,32,32-14.33,32-32-14.33-32-32-32Zm88,0c-17.67,0-32,14.33-32,32s14.33,32,32,32,32-14.33,32-32-14.33-32-32-32Zm88,0c-17.67,0-32,14.33-32,32s14.33,32,32,32,32-14.33,32-32-14.33-32-32-32ZM140,196c-17.67,0-32,14.33-32,32s14.33,32,32,32,32-14.33,32-32-14.33-32-32-32Zm88,0c-17.67,0-32,14.33-32,32s14.33,32,32,32,32-14.33,32-32-14.33-32-32-32Zm88,0c-17.67,0-32,14.33-32,32s14.33,32,32,32,32-14.33,32-32-14.33-32-32-32Zm88,0c-17.67,0-32,14.33-32,32s14.33,32,32,32,32-14.33,32-32-14.33-32-32-32Zm88,0c-17.67,0-32,14.33-32,32s14.33,32,32,32,32-14.33,32-32-14.33-32-32-32Zm88,0c-17.67,0-32,14.33-32,32s14.33,32,32,32,32-14.33,32-32-14.33-32-32-32Zm-528,0c-17.67,0-32,14.33-32,32s14.33,32,32,32,32-14.33,32-32-14.33-32-32-32ZM580,108c-17.67,0-32,14.33-32,32s14.33,32,32,32,32-14.33,32-32-14.33-32-32-32Zm-88,0c-17.67,0-32,14.33-32,32s14.33,32,32,32,32-14.33,32-32-14.33-32-32-32Zm-88,0c-17.67,0-32,14.33-32,32s14.33,32,32,32,32-14.33,32-32-14.33-32-32-32Zm-88,0c-17.67,0-32,14.33-32,32s14.33,32,32,32,32-14.33,32-32-14.33-32-32-32Zm-88,0c-17.67,0-32,14.33-32,32s14.33,32,32,32,32-14.33,32-32-14.33-32-32-32Zm-88,0c-17.67,0-32,14.33-32,32s14.33,32,32,32,32-14.33,32-32-14.33-32-32-32Zm-88,0c-17.67,0-32,14.33-32,32s14.33,32,32,32,32-14.33,32-32-14.33-32-32-32ZM580,20c-17.67,0-32,14.33-32,32s14.33,32,32,32,32-14.33,32-32-14.33-32-32-32Zm-88,0c-17.67,0-32,14.33-32,32s14.33,32,32,32,32-14.33,32-32-14.33-32-32-32Zm-88,0c-17.67,0-32,14.33-32,32s14.33,32,32,32,32-14.33,32-32-14.33-32-32-32Zm-88,0c-17.67,0-32,14.33-32,32s14.33,32,32,32,32-14.33,32-32-14.33-32-32-32Zm-88,0c-17.67,0-32,14.33-32,32s14.33,32,32,32,32-14.33,32-32-14.33-32-32-32Zm-88,0c-17.67,0-32,14.33-32,32s14.33,32,32,32,32-14.33,32-32-14.33-32-32-32Zm-88,0c-17.67,0-32,14.33-32,32s14.33,32,32,32,32-14.33,32-32-14.33-32-32-32Z"/><g class="i"><path d="M140,460l.02-3h-.02v3Zm.53,0l.05-3h-.03l-.02,3ZM592,3c20.43,0,37,16.57,37,37h6c0-23.75-19.25-43-43-43V3Zm37,37v504h6V40h-6Zm0,504c0,20.43-16.57,37-37,37v6c23.75,0,43-19.25,43-43h-6Zm-37,37H40v6H592v-6Zm-552,0c-20.43,0-37-16.57-37-37H-3c0,23.75,19.25,43,43,43v-6ZM3,544V40H-3v504H3ZM3,40C3,19.57,19.57,3,40,3V-3C16.25-3-3,16.25-3,40H3ZM40,3H592V-3H40V3ZM580,457c-19.33,0-35,15.67-35,35h6c0-16.02,12.98-29,29-29v-6Zm-35,35c0,19.33,15.67,35,35,35v-6c-16.02,0-29-12.98-29-29h-6Zm35,35c19.33,0,35-15.67,35-35h-6c0,16.02-12.98,29-29,29v6Zm35-35c0-19.33-15.67-35-35-35v6c16.02,0,29,12.98,29,29h6Zm-123-35c-19.33,0-35,15.67-35,35h6c0-16.02,12.98-29,29-29v-6Zm-35,35c0,19.33,15.67,35,35,35v-6c-16.02,0-29-12.98-29-29h-6Zm35,35c19.33,0,35-15.67,35-35h-6c0,16.02-12.98,29-29,29v6Zm35-35c0-19.33-15.67-35-35-35v6c16.02,0,29,12.98,29,29h6Zm-123-35c-19.33,0-35,15.67-35,35h6c0-16.02,12.98-29,29-29v-6Zm-35,35c0,19.33,15.67,35,35,35v-6c-16.02,0-29-12.98-29-29h-6Zm35,35c19.33,0,35-15.67,35-35h-6c0,16.02-12.98,29-29,29v6Zm35-35c0-19.33-15.67-35-35-35v6c16.02,0,29,12.98,29,29h6Zm-211-35c-19.33,0-35,15.67-35,35h6c0-16.02,12.98-29,29-29v-6Zm-35,35c0,19.33,15.67,35,35,35v-6c-16.02,0-29-12.98-29-29h-6Zm35,35c19.33,0,35-15.67,35-35h-6c0,16.02-12.98,29-29,29v6Zm35-35c0-19.33-15.67-35-35-35v6c16.02,0,29,12.98,29,29h6Zm53-35c-19.33,0-35,15.67-35,35h6c0-16.02,12.98-29,29-29v-6Zm-35,35c0,19.33,15.67,35,35,35v-6c-16.02,0-29-12.98-29-29h-6Zm35,35c19.33,0,35-15.67,35-35h-6c0,16.02-12.98,29-29,29v6Zm35-35c0-19.33-15.67-35-35-35v6c16.02,0,29,12.98,29,29h6Zm-211-35c-19.33,0-35,15.67-35,35h6c0-16.02,12.98-29,29-29v-6Zm-35,35c0,19.33,15.67,35,35,35v-6c-16.02,0-29-12.98-29-29h-6Zm35,35c19.33,0,35-15.67,35-35h-6c0,16.02-12.98,29-29,29v6Zm35-35c0-19.14-15.36-34.69-34.42-34.99l-.1,6c15.79,.26,28.52,13.14,28.52,29h6Zm-34.45-35h-.53l-.05,6h.53l.05-6Zm-88.55,0c-19.33,0-35,15.67-35,35h6c0-16.02,12.98-29,29-29v-6Zm-35,35c0,19.33,15.67,35,35,35v-6c-16.02,0-29-12.98-29-29h-6Zm35,35c19.33,0,35-15.67,35-35h-6c0,16.02-12.98,29-29,29v6Zm35-35c0-19.33-15.67-35-35-35v6c16.02,0,29,12.98,29,29h6Zm493-123c-19.33,0-35,15.67-35,35h6c0-16.02,12.98-29,29-29v-6Zm-35,35c0,19.33,15.67,35,35,35v-6c-16.02,0-29-12.98-29-29h-6Zm35,35c19.33,0,35-15.67,35-35h-6c0,16.02-12.98,29-29,29v6Zm35-35c0-19.33-15.67-35-35-35v6c16.02,0,29,12.98,29,29h6Zm-123-35c-19.33,0-35,15.67-35,35h6c0-16.02,12.98-29,29-29v-6Zm-35,35c0,19.33,15.67,35,35,35v-6c-16.02,0-29-12.98-29-29h-6Zm35,35c19.33,0,35-15.67,35-35h-6c0,16.02-12.98,29-29,29v6Zm35-35c0-19.33-15.67-35-35-35v6c16.02,0,29,12.98,29,29h6Zm-123-35c-19.33,0-35,15.67-35,35h6c0-16.02,12.98-29,29-29v-6Zm-35,35c0,19.33,15.67,35,35,35v-6c-16.02,0-29-12.98-29-29h-6Zm35,35c19.33,0,35-15.67,35-35h-6c0,16.02-12.98,29-29,29v6Zm35-35c0-19.33-15.67-35-35-35v6c16.02,0,29,12.98,29,29h6Zm-123-35c-19.33,0-35,15.67-35,35h6c0-16.02,12.98-29,29-29v-6Zm-35,35c0,19.33,15.67,35,35,35v-6c-16.02,0-29-12.98-29-29h-6Zm35,35c19.33,0,35-15.67,35-35h-6c0,16.02-12.98,29-29,29v6Zm35-35c0-19.33-15.67-35-35-35v6c16.02,0,29,12.98,29,29h6Zm-123-35c-19.33,0-35,15.67-35,35h6c0-16.02,12.98-29,29-29v-6Zm-35,35c0,19.33,15.67,35,35,35v-6c-16.02,0-29-12.98-29-29h-6Zm35,35c19.33,0,35-15.67,35-35h-6c0,16.02-12.98,29-29,29v6Zm35-35c0-19.33-15.67-35-35-35v6c16.02,0,29,12.98,29,29h6Zm-123-35c-19.33,0-35,15.67-35,35h6c0-16.02,12.98-29,29-29v-6Zm-35,35c0,19.33,15.67,35,35,35v-6c-16.02,0-29-12.98-29-29h-6Zm35,35c19.33,0,35-15.67,35-35h-6c0,16.02-12.98,29-29,29v6Zm35-35c0-19.33-15.67-35-35-35v6c16.02,0,29,12.98,29,29h6Zm-123-35c-19.33,0-35,15.67-35,35h6c0-16.02,12.98-29,29-29v-6Zm-35,35c0,19.33,15.67,35,35,35v-6c-16.02,0-29-12.98-29-29h-6Zm35,35c19.33,0,35-15.67,35-35h-6c0,16.02-12.98,29-29,29v6Zm35-35c0-19.33-15.67-35-35-35v6c16.02,0,29,12.98,29,29h6Zm-35-123c-19.33,0-35,15.67-35,35h6c0-16.02,12.98-29,29-29v-6Zm-35,35c0,19.33,15.67,35,35,35v-6c-16.02,0-29-12.98-29-29h-6Zm35,35c19.33,0,35-15.67,35-35h-6c0,16.02-12.98,29-29,29v6Zm35-35c0-19.33-15.67-35-35-35v6c16.02,0,29,12.98,29,29h6Zm53-35c-19.33,0-35,15.67-35,35h6c0-16.02,12.98-29,29-29v-6Zm-35,35c0,19.33,15.67,35,35,35v-6c-16.02,0-29-12.98-29-29h-6Zm35,35c19.33,0,35-15.67,35-35h-6c0,16.02-12.98,29-29,29v6Zm35-35c0-19.33-15.67-35-35-35v6c16.02,0,29,12.98,29,29h6Zm53-35c-19.33,0-35,15.67-35,35h6c0-16.02,12.98-29,29-29v-6Zm-35,35c0,19.33,15.67,35,35,35v-6c-16.02,0-29-12.98-29-29h-6Zm35,35c19.33,0,35-15.67,35-35h-6c0,16.02-12.98,29-29,29v6Zm35-35c0-19.33-15.67-35-35-35v6c16.02,0,29,12.98,29,29h6Zm53-35c-19.33,0-35,15.67-35,35h6c0-16.02,12.98-29,29-29v-6Zm-35,35c0,19.33,15.67,35,35,35v-6c-16.02,0-29-12.98-29-29h-6Zm35,35c19.33,0,35-15.67,35-35h-6c0,16.02-12.98,29-29,29v6Zm35-35c0-19.33-15.67-35-35-35v6c16.02,0,29,12.98,29,29h6Zm53-35c-19.33,0-35,15.67-35,35h6c0-16.02,12.98-29,29-29v-6Zm-35,35c0,19.33,15.67,35,35,35v-6c-16.02,0-29-12.98-29-29h-6Zm35,35c19.33,0,35-15.67,35-35h-6c0,16.02-12.98,29-29,29v6Zm35-35c0-19.33-15.67-35-35-35v6c16.02,0,29,12.98,29,29h6Zm53-35c-19.33,0-35,15.67-35,35h6c0-16.02,12.98-29,29-29v-6Zm-35,35c0,19.33,15.67,35,35,35v-6c-16.02,0-29-12.98-29-29h-6Zm35,35c19.33,0,35-15.67,35-35h-6c0,16.02-12.98,29-29,29v6Zm35-35c0-19.33-15.67-35-35-35v6c16.02,0,29,12.98,29,29h6Zm53-35c-19.33,0-35,15.67-35,35h6c0-16.02,12.98-29,29-29v-6Zm-35,35c0,19.33,15.67,35,35,35v-6c-16.02,0-29-12.98-29-29h-6Zm35,35c19.33,0,35-15.67,35-35h-6c0,16.02-12.98,29-29,29v6Zm35-35c0-19.33-15.67-35-35-35v6c16.02,0,29,12.98,29,29h6ZM140,193c-19.33,0-35,15.67-35,35h6c0-16.02,12.98-29,29-29v-6Zm-35,35c0,19.33,15.67,35,35,35v-6c-16.02,0-29-12.98-29-29h-6Zm35,35c19.33,0,35-15.67,35-35h-6c0,16.02-12.98,29-29,29v6Zm35-35c0-19.33-15.67-35-35-35v6c16.02,0,29,12.98,29,29h6Zm53-35c-19.33,0-35,15.67-35,35h6c0-16.02,12.98-29,29-29v-6Zm-35,35c0,19.33,15.67,35,35,35v-6c-16.02,0-29-12.98-29-29h-6Zm35,35c19.33,0,35-15.67,35-35h-6c0,16.02-12.98,29-29,29v6Zm35-35c0-19.33-15.67-35-35-35v6c16.02,0,29,12.98,29,29h6Zm53-35c-19.33,0-35,15.67-35,35h6c0-16.02,12.98-29,29-29v-6Zm-35,35c0,19.33,15.67,35,35,35v-6c-16.02,0-29-12.98-29-29h-6Zm35,35c19.33,0,35-15.67,35-35h-6c0,16.02-12.98,29-29,29v6Zm35-35c0-19.33-15.67-35-35-35v6c16.02,0,29,12.98,29,29h6Zm53-35c-19.33,0-35,15.67-35,35h6c0-16.02,12.98-29,29-29v-6Zm-35,35c0,19.33,15.67,35,35,35v-6c-16.02,0-29-12.98-29-29h-6Zm35,35c19.33,0,35-15.67,35-35h-6c0,16.02-12.98,29-29,29v6Zm35-35c0-19.33-15.67-35-35-35v6c16.02,0,29,12.98,29,29h6Zm53-35c-19.33,0-35,15.67-35,35h6c0-16.02,12.98-29,29-29v-6Zm-35,35c0,19.33,15.67,35,35,35v-6c-16.02,0-29-12.98-29-29h-6Zm35,35c19.33,0,35-15.67,35-35h-6c0,16.02-12.98,29-29,29v6Zm35-35c0-19.33-15.67-35-35-35v6c16.02,0,29,12.98,29,29h6Zm53-35c-19.33,0-35,15.67-35,35h6c0-16.02,12.98-29,29-29v-6Zm-35,35c0,19.33,15.67,35,35,35v-6c-16.02,0-29-12.98-29-29h-6Zm35,35c19.33,0,35-15.67,35-35h-6c0,16.02-12.98,29-29,29v6Zm35-35c0-19.33-15.67-35-35-35v6c16.02,0,29,12.98,29,29h6ZM52,193c-19.33,0-35,15.67-35,35h6c0-16.02,12.98-29,29-29v-6Zm-35,35c0,19.33,15.67,35,35,35v-6c-16.02,0-29-12.98-29-29h-6Zm35,35c19.33,0,35-15.67,35-35h-6c0,16.02-12.98,29-29,29v6Zm35-35c0-19.33-15.67-35-35-35v6c16.02,0,29,12.98,29,29h6Zm493-123c-19.33,0-35,15.67-35,35h6c0-16.02,12.98-29,29-29v-6Zm-35,35c0,19.33,15.67,35,35,35v-6c-16.02,0-29-12.98-29-29h-6Zm35,35c19.33,0,35-15.67,35-35h-6c0,16.02-12.98,29-29,29v6Zm35-35c0-19.33-15.67-35-35-35v6c16.02,0,29,12.98,29,29h6Zm-123-35c-19.33,0-35,15.67-35,35h6c0-16.02,12.98-29,29-29v-6Zm-35,35c0,19.33,15.67,35,35,35v-6c-16.02,0-29-12.98-29-29h-6Zm35,35c19.33,0,35-15.67,35-35h-6c0,16.02-12.98,29-29,29v6Zm35-35c0-19.33-15.67-35-35-35v6c16.02,0,29,12.98,29,29h6Zm-123-35c-19.33,0-35,15.67-35,35h6c0-16.02,12.98-29,29-29v-6Zm-35,35c0,19.33,15.67,35,35,35v-6c-16.02,0-29-12.98-29-29h-6Zm35,35c19.33,0,35-15.67,35-35h-6c0,16.02-12.98,29-29,29v6Zm35-35c0-19.33-15.67-35-35-35v6c16.02,0,29,12.98,29,29h6Zm-123-35c-19.33,0-35,15.67-35,35h6c0-16.02,12.98-29,29-29v-6Zm-35,35c0,19.33,15.67,35,35,35v-6c-16.02,0-29-12.98-29-29h-6Zm35,35c19.33,0,35-15.67,35-35h-6c0,16.02-12.98,29-29,29v6Zm35-35c0-19.33-15.67-35-35-35v6c16.02,0,29,12.98,29,29h6Zm-123-35c-19.33,0-35,15.67-35,35h6c0-16.02,12.98-29,29-29v-6Zm-35,35c0,19.33,15.67,35,35,35v-6c-16.02,0-29-12.98-29-29h-6Zm35,35c19.33,0,35-15.67,35-35h-6c0,16.02-12.98,29-29,29v6Zm35-35c0-19.33-15.67-35-35-35v6c16.02,0,29,12.98,29,29h6Zm-123-35c-19.33,0-35,15.67-35,35h6c0-16.02,12.98-29,29-29v-6Zm-35,35c0,19.33,15.67,35,35,35v-6c-16.02,0-29-12.98-29-29h-6Zm35,35c19.33,0,35-15.67,35-35h-6c0,16.02-12.98,29-29,29v6Zm35-35c0-19.33-15.67-35-35-35v6c16.02,0,29,12.98,29,29h6ZM52,105c-19.33,0-35,15.67-35,35h6c0-16.02,12.98-29,29-29v-6Zm-35,35c0,19.33,15.67,35,35,35v-6c-16.02,0-29-12.98-29-29h-6Zm35,35c19.33,0,35-15.67,35-35h-6c0,16.02-12.98,29-29,29v6Zm35-35c0-19.33-15.67-35-35-35v6c16.02,0,29,12.98,29,29h6ZM580,17c-19.33,0-35,15.67-35,35h6c0-16.02,12.98-29,29-29v-6Zm-35,35c0,19.33,15.67,35,35,35v-6c-16.02,0-29-12.98-29-29h-6Zm35,35c19.33,0,35-15.67,35-35h-6c0,16.02-12.98,29-29,29v6Zm35-35c0-19.33-15.67-35-35-35v6c16.02,0,29,12.98,29,29h6Zm-123-35c-19.33,0-35,15.67-35,35h6c0-16.02,12.98-29,29-29v-6Zm-35,35c0,19.33,15.67,35,35,35v-6c-16.02,0-29-12.98-29-29h-6Zm35,35c19.33,0,35-15.67,35-35h-6c0,16.02-12.98,29-29,29v6Zm35-35c0-19.33-15.67-35-35-35v6c16.02,0,29,12.98,29,29h6Zm-123-35c-19.33,0-35,15.67-35,35h6c0-16.02,12.98-29,29-29v-6Zm-35,35c0,19.33,15.67,35,35,35v-6c-16.02,0-29-12.98-29-29h-6Zm35,35c19.33,0,35-15.67,35-35h-6c0,16.02-12.98,29-29,29v6Zm35-35c0-19.33-15.67-35-35-35v6c16.02,0,29,12.98,29,29h6Zm-123-35c-19.33,0-35,15.67-35,35h6c0-16.02,12.98-29,29-29v-6Zm-35,35c0,19.33,15.67,35,35,35v-6c-16.02,0-29-12.98-29-29h-6Zm35,35c19.33,0,35-15.67,35-35h-6c0,16.02-12.98,29-29,29v6Zm35-35c0-19.33-15.67-35-35-35v6c16.02,0,29,12.98,29,29h6ZM228,17c-19.33,0-35,15.67-35,35h6c0-16.02,12.98-29,29-29v-6Zm-35,35c0,19.33,15.67,35,35,35v-6c-16.02,0-29-12.98-29-29h-6Zm35,35c19.33,0,35-15.67,35-35h-6c0,16.02-12.98,29-29,29v6Zm35-35c0-19.33-15.67-35-35-35v6c16.02,0,29,12.98,29,29h6ZM140,17c-19.33,0-35,15.67-35,35h6c0-16.02,12.98-29,29-29v-6Zm-35,35c0,19.33,15.67,35,35,35v-6c-16.02,0-29-12.98-29-29h-6Zm35,35c19.33,0,35-15.67,35-35h-6c0,16.02-12.98,29-29,29v6Zm35-35c0-19.33-15.67-35-35-35v6c16.02,0,29,12.98,29,29h6ZM52,17c-19.33,0-35,15.67-35,35h6c0-16.02,12.98-29,29-29v-6ZM17,52c0,19.33,15.67,35,35,35v-6c-16.02,0-29-12.98-29-29h-6Zm35,35c19.33,0,35-15.67,35-35h-6c0,16.02-12.98,29-29,29v6Zm35-35c0-19.33-15.67-35-35-35v6c16.02,0,29,12.98,29,29h6Z"/></g></g></svg>